# Blender 5.1.0
# www.blender.org
mtllib 3D_Mapping_Maske.mtl
o Plane
v -0.059743 0.066940 0.631601
v -0.058186 -0.026221 0.584580
v -0.046189 0.491880 0.344922
v -0.152303 0.115196 0.385712
v -0.154518 0.579224 0.361162
v -0.110903 0.405324 0.264526
v -0.515717 0.561518 0.213533
v -0.553106 0.118701 0.179654
v -0.037989 -0.090219 0.438617
v -0.187178 0.042052 0.366211
v -0.150343 -0.046687 0.392456
v -0.579526 0.387881 0.033691
v -0.565682 0.946823 -0.063015
v -0.243122 1.008965 0.174805
v -0.725403 0.310484 -0.588448
v -0.696899 0.841187 -0.462463
v -0.449616 -0.214933 0.135896
v -0.630471 -0.276500 -0.511110
v -0.336208 -0.604928 0.147108
v -0.039085 -0.203528 0.501288
v -0.153243 -0.206938 0.445116
v -0.271477 -0.272652 0.351440
v -0.101901 -0.327557 0.449073
v -0.134246 -0.417289 0.390219
v -0.145359 -0.558588 0.441674
v -0.138774 -0.714093 0.345627
v -0.128021 -0.255753 0.393799
v -0.090350 -0.274603 0.413120
v -0.558529 -0.445986 -0.171788
v -0.263062 0.348345 0.246521
v -0.255323 0.475421 0.228265
v -0.175702 0.399628 0.214847
v -0.401018 0.467701 0.198198
v -0.394447 0.347152 0.211679
v -0.444718 0.405951 0.167484
v -0.277107 0.378527 0.258733
v -0.272073 0.446347 0.252232
v -0.382797 0.439486 0.230006
v -0.378329 0.375464 0.223757
v -0.279512 -0.506461 0.292488
v 0.068152 0.066940 0.631601
v 0.066596 -0.026221 0.584580
v 0.054598 0.491880 0.344922
v 0.160712 0.115196 0.385712
v 0.162927 0.579224 0.361162
v 0.119312 0.405324 0.264526
v 0.524126 0.561518 0.213533
v 0.561515 0.118701 0.179654
v 0.046398 -0.090219 0.438617
v 0.195587 0.042052 0.366211
v 0.158752 -0.046687 0.392456
v 0.587935 0.387881 0.033691
v 0.574092 0.946823 -0.063015
v 0.251531 1.008965 0.174805
v 0.733812 0.310484 -0.588448
v 0.705309 0.841187 -0.462463
v 0.458025 -0.214933 0.135896
v 0.638880 -0.276500 -0.511110
v 0.344617 -0.604928 0.147108
v 0.047494 -0.203528 0.501288
v 0.161652 -0.206938 0.445116
v 0.279886 -0.272652 0.351440
v 0.110310 -0.327557 0.449073
v 0.142655 -0.417289 0.390219
v 0.153768 -0.558588 0.441674
v 0.147183 -0.714093 0.345627
v 0.136430 -0.255753 0.393799
v 0.098759 -0.274603 0.413120
v 0.566938 -0.445986 -0.171788
v 0.271471 0.348345 0.246521
v 0.263732 0.475421 0.228265
v 0.184112 0.399628 0.214847
v 0.409427 0.467701 0.198198
v 0.402856 0.347152 0.211679
v 0.453127 0.405951 0.167484
v 0.285516 0.378527 0.258733
v 0.280482 0.446347 0.252232
v 0.391207 0.439486 0.230006
v 0.386738 0.375464 0.223757
v 0.287921 -0.506461 0.292488
v 0.004233 -0.261448 0.442498
v 0.004332 -0.329079 0.476329
v 0.004332 -0.283160 0.434516
vn -0.2991 -0.5197 0.8003
vn -0.6357 0.2705 0.7230
vn -0.4890 0.3664 0.7916
vn -0.2776 0.4778 0.8334
vn -0.9597 0.0708 0.2721
vn -0.9660 0.0307 0.2565
vn -0.4505 -0.8389 0.3055
vn -0.9740 0.0265 0.2251
vn -0.4788 -0.2132 0.8516
vn -0.7376 0.1669 0.6543
vn -0.8674 -0.2333 0.4395
vn -0.3269 0.3712 0.8691
vn -0.6812 0.2396 0.6917
vn -0.7810 -0.1273 0.6114
vn -0.2249 -0.4764 0.8500
vn -0.5479 -0.3117 0.7763
vn -0.8467 -0.2325 0.4786
vn -0.2564 -0.7689 0.5857
vn -0.1062 -0.7460 0.6574
vn -0.1547 0.6219 0.7677
vn -0.2568 0.5806 0.7726
vn -0.4471 0.0779 0.8911
vn -0.2396 -0.5933 0.7685
vn -0.4908 -0.4456 0.7487
vn -0.3988 0.2465 0.8833
vn -0.4407 -0.5352 0.7207
vn -0.6370 0.0342 0.7701
vn -0.2619 -0.3622 0.8946
vn -0.7495 0.2199 0.6244
vn -0.1830 0.6834 0.7068
vn 0.4868 0.3714 0.7907
vn 0.4205 -0.1653 0.8921
vn -0.9414 -0.3096 0.1339
vn -0.9598 -0.0608 0.2741
vn -0.7520 -0.3701 0.5454
vn -0.4580 -0.2025 0.8656
vn -0.6532 0.3039 0.6935
vn -0.8679 0.3105 0.3877
vn -0.8753 0.2886 0.3880
vn 0.2991 -0.5197 0.8003
vn 0.6357 0.2705 0.7230
vn 0.4890 0.3664 0.7916
vn 0.2776 0.4778 0.8334
vn 0.9597 0.0708 0.2721
vn 0.9660 0.0307 0.2565
vn 0.4505 -0.8389 0.3055
vn 0.9740 0.0265 0.2251
vn 0.4788 -0.2132 0.8516
vn 0.7376 0.1669 0.6543
vn 0.8674 -0.2333 0.4395
vn 0.3269 0.3712 0.8691
vn 0.6812 0.2396 0.6917
vn 0.7810 -0.1273 0.6114
vn 0.2254 -0.4762 0.8499
vn 0.5479 -0.3117 0.7763
vn -0.0000 -0.6985 0.7156
vn 0.8467 -0.2325 0.4786
vn 0.2565 -0.7688 0.5858
vn 0.1062 -0.7460 0.6574
vn 0.1551 0.6219 0.7676
vn 0.2568 0.5806 0.7726
vn 0.4471 0.0779 0.8911
vn 0.2396 -0.5933 0.7685
vn 0.4908 -0.4456 0.7487
vn 0.3988 0.2465 0.8833
vn 0.4407 -0.5352 0.7207
vn 0.6370 0.0342 0.7701
vn 0.2619 -0.3622 0.8946
vn 0.7495 0.2199 0.6244
vn 0.1830 0.6834 0.7068
vn -0.4868 0.3714 0.7907
vn -0.4205 -0.1653 0.8921
vn 0.9414 -0.3096 0.1339
vn 0.9598 -0.0608 0.2741
vn 0.7520 -0.3701 0.5454
vn 0.4580 -0.2025 0.8656
vn 0.6532 0.3039 0.6935
vn 0.8679 0.3105 0.3877
vn 0.8753 0.2886 0.3880
vn -0.0000 -0.7124 0.7018
vn -0.0000 0.4840 0.8751
vn -0.0000 -0.9158 0.4016
vn -0.0000 -0.4506 0.8927
vn -0.0000 0.5593 0.8290
vn -0.0000 -0.1828 0.9832
vn -0.0000 0.3979 0.9175
vn -0.0000 0.3422 0.9396
vn -0.0000 -0.5255 0.8508
vt 0.403821 0.690634
vt 0.465268 0.749598
vt 0.407804 0.812149
vt 0.265003 0.656814
vt 0.229686 0.697483
vt 0.122721 0.685041
vt 0.121525 0.514613
vt 0.216357 0.803548
vt 0.356939 0.992131
vt 0.139610 0.939553
vt 0.369664 0.547357
vt 0.367204 0.692215
vt 0.333713 0.655601
vt 0.059471 0.850473
vt 0.017039 0.529331
vt 0.470431 0.386292
vt 0.458614 0.445453
vt 0.372118 0.414438
vt 0.146081 0.294315
vt 0.330270 0.467808
vt 0.259861 0.270766
vt 0.456052 0.524578
vt 0.380138 0.334390
vt 0.472612 0.340919
vt 0.268817 0.115092
vt 0.424199 0.235085
vt 0.386408 0.177589
vt 0.503923 0.234348
vt 0.251094 0.044606
vt 0.116377 0.115673
vt 0.388520 0.286780
vt 0.502740 0.288677
vt 0.503152 0.273722
vt 0.422685 0.275637
vt 0.262863 0.735970
vt 0.337467 0.734408
vt 0.275271 0.673685
vt 0.325624 0.675112
vt 0.277058 0.713015
vt 0.327903 0.712441
vt 0.070885 0.194794
vt 0.411184 0.090674
vt 0.402511 0.003982
vt 0.587741 0.693082
vt 0.577990 0.817897
vt 0.523153 0.746801
vt 0.728180 0.667066
vt 0.876423 0.528689
vt 0.869047 0.701628
vt 0.762118 0.709326
vt 0.772399 0.815869
vt 0.837189 0.950970
vt 0.623904 0.993654
vt 0.624110 0.553848
vt 0.659538 0.662351
vt 0.624533 0.696961
vt 0.969181 0.556839
vt 0.918585 0.871384
vt 0.533731 0.387810
vt 0.630408 0.418710
vt 0.559220 0.447791
vt 0.670309 0.474399
vt 0.860433 0.308092
vt 0.746449 0.277864
vt 0.554340 0.527056
vt 0.530021 0.342390
vt 0.623326 0.337880
vt 0.743929 0.123809
vt 0.583781 0.237124
vt 0.625227 0.179536
vt 0.754130 0.054351
vt 0.885541 0.134977
vt 0.617049 0.290030
vt 0.583426 0.277904
vt 0.652846 0.741333
vt 0.727785 0.746263
vt 0.717368 0.683411
vt 0.666911 0.682297
vt 0.714287 0.722638
vt 0.663268 0.719636
vt 0.924997 0.221151
vt 0.604097 0.099331
vt 0.601318 0.004477
s 0
usemtl Material.001
f 6/1/1 3/2/1 5/3/1
f 34/4/2 35/5/2 12/6/2 8/7/2
f 7/8/3 5/3/3 14/9/3 13/10/3
f 4/11/4 6/1/4 32/12/4 30/13/4
f 7/8/5 13/10/5 12/6/5
f 12/6/6 13/10/6 16/14/6 15/15/6
f 9/16/7 2/17/7 11/18/7
f 8/7/8 12/6/8 15/15/8
f 4/11/9 8/7/9 17/19/9 10/20/9
f 17/19/10 22/21/10 10/20/10
f 1/22/11 10/20/11 11/18/11 2/17/11
f 9/16/12 11/18/12 21/23/12 20/24/12
f 11/18/13 22/21/13 21/23/13
f 22/21/14 17/19/14 40/25/14
f 23/26/15 24/27/15 82/28/15
f 22/21/16 24/27/16 23/26/16
f 19/29/17 40/25/17 17/19/17 29/30/17
f 20/24/18 21/23/18 27/31/18 81/32/18
f 21/23/19 22/21/19 27/31/19
f 23/26/20 82/28/20 83/33/20 28/34/20
f 22/21/21 23/26/21 28/34/21
f 22/21/22 11/18/22 10/20/22
f 5/3/23 7/8/23 33/35/23 31/36/23
f 7/8/24 12/6/24 35/5/24 33/35/24
f 30/13/25 34/4/25 8/7/25 4/11/25
f 31/36/26 32/12/26 6/1/26 5/3/26
f 39/37/27 35/5/27 34/4/27
f 36/38/28 39/37/28 34/4/28 30/13/28
f 33/35/29 35/5/29 38/39/29
f 31/36/30 33/35/30 38/39/30 37/40/30
f 37/40/31 32/12/31 31/36/31
f 30/13/32 32/12/32 36/38/32
f 17/19/33 8/7/33 15/15/33
f 18/41/34 29/30/34 17/19/34 15/15/34
f 25/42/35 40/25/35 19/29/35 26/43/35
f 24/27/36 22/21/36 40/25/36
f 25/42/37 24/27/37 40/25/37
f 1/22/38 4/11/38 10/20/38
f 1/22/39 3/2/39 6/1/39 4/11/39
f 46/44/40 45/45/40 43/46/40
f 74/47/41 48/48/41 52/49/41 75/50/41
f 47/51/42 53/52/42 54/53/42 45/45/42
f 44/54/43 70/55/43 72/56/43 46/44/43
f 47/51/44 52/49/44 53/52/44
f 52/49/45 55/57/45 56/58/45 53/52/45
f 49/59/46 51/60/46 42/61/46
f 48/48/47 55/57/47 52/49/47
f 44/54/48 50/62/48 57/63/48 48/48/48
f 57/63/49 50/62/49 62/64/49
f 41/65/50 42/61/50 51/60/50 50/62/50
f 49/59/51 60/66/51 61/67/51 51/60/51
f 51/60/52 61/67/52 62/64/52
f 62/64/53 80/68/53 57/63/53
f 63/69/54 82/28/54 64/70/54
f 62/64/55 63/69/55 64/70/55
f 24/27/56 64/70/56 82/28/56
f 59/71/57 69/72/57 57/63/57 80/68/57
f 60/66/58 81/32/58 67/73/58 61/67/58
f 61/67/59 67/73/59 62/64/59
f 63/69/60 68/74/60 83/33/60 82/28/60
f 62/64/61 68/74/61 63/69/61
f 62/64/62 50/62/62 51/60/62
f 45/45/63 71/75/63 73/76/63 47/51/63
f 47/51/64 73/76/64 75/50/64 52/49/64
f 70/55/65 44/54/65 48/48/65 74/47/65
f 71/75/66 45/45/66 46/44/66 72/56/66
f 79/77/67 74/47/67 75/50/67
f 76/78/68 70/55/68 74/47/68 79/77/68
f 73/76/69 78/79/69 75/50/69
f 71/75/70 77/80/70 78/79/70 73/76/70
f 77/80/71 71/75/71 72/56/71
f 70/55/72 76/78/72 72/56/72
f 57/63/73 55/57/73 48/48/73
f 58/81/74 55/57/74 57/63/74 69/72/74
f 65/82/75 66/83/75 59/71/75 80/68/75
f 64/70/76 80/68/76 62/64/76
f 65/82/77 80/68/77 64/70/77
f 41/65/78 50/62/78 44/54/78
f 41/65/79 44/54/79 46/44/79 43/46/79
f 60/66/80 20/24/80 81/32/80
f 49/59/81 9/16/81 20/24/81 60/66/81
f 42/61/82 2/17/82 9/16/82 49/59/82
f 2/17/83 42/61/83 41/65/83 1/22/83
f 1/22/84 41/65/84 43/46/84 3/2/84
f 3/2/85 43/46/85 45/45/85 5/3/85
f 5/3/86 45/45/86 54/53/86 14/9/86
f 64/70/87 24/27/87 25/42/87 65/82/87
f 65/82/88 25/42/88 26/43/88 66/83/88
