# Blender 5.0.1
# www.blender.org
mtllib Mask_Frame.mtl
o Maske.002
v -0.059743 0.066940 0.631601
v -0.058186 -0.026221 0.584580
v -0.046189 0.491880 0.344922
v -0.152303 0.115196 0.385712
v -0.154518 0.579224 0.361162
v -0.110903 0.405324 0.264526
v -0.515717 0.561518 0.213533
v -0.553106 0.118701 0.179654
v -0.037989 -0.090219 0.438617
v -0.187178 0.042052 0.366211
v -0.150343 -0.046687 0.392456
v -0.579526 0.387881 0.033691
v -0.565682 0.946823 -0.063015
v -0.243122 1.008965 0.174805
v -0.725403 0.310484 -0.588448
v -0.696899 0.841187 -0.462463
v -0.449616 -0.214933 0.135896
v -0.630471 -0.276500 -0.511110
v -0.336208 -0.604928 0.147108
v -0.039085 -0.203528 0.501288
v -0.153243 -0.206938 0.445116
v -0.271477 -0.272652 0.351440
v -0.101901 -0.327557 0.449073
v -0.134246 -0.417289 0.390219
v -0.145359 -0.558588 0.441674
v -0.138774 -0.714093 0.345627
v -0.128021 -0.255753 0.393799
v -0.090350 -0.274603 0.413120
v -0.558529 -0.445986 -0.171788
v -0.263062 0.348345 0.246521
v -0.255323 0.475421 0.228265
v -0.175702 0.399628 0.214847
v -0.401018 0.467701 0.198198
v -0.394447 0.347152 0.211679
v -0.444718 0.405951 0.167484
v -0.277107 0.378527 0.258733
v -0.272073 0.446347 0.252232
v -0.382797 0.439486 0.230006
v -0.378329 0.375464 0.223757
v -0.279512 -0.506461 0.292488
v 0.068152 0.066940 0.631601
v 0.066596 -0.026221 0.584580
v 0.054598 0.491880 0.344922
v 0.160712 0.115196 0.385712
v 0.162927 0.579224 0.361162
v 0.119312 0.405324 0.264526
v 0.524126 0.561518 0.213533
v 0.561515 0.118701 0.179654
v 0.046398 -0.090219 0.438617
v 0.195587 0.042052 0.366211
v 0.158752 -0.046687 0.392456
v 0.587935 0.387881 0.033691
v 0.574092 0.946823 -0.063015
v 0.251531 1.008965 0.174805
v 0.733812 0.310484 -0.588448
v 0.705309 0.841187 -0.462463
v 0.458025 -0.214933 0.135896
v 0.638880 -0.276500 -0.511110
v 0.344617 -0.604928 0.147108
v 0.047494 -0.203528 0.501288
v 0.161652 -0.206938 0.445116
v 0.279886 -0.272652 0.351440
v 0.110310 -0.327557 0.449073
v 0.142655 -0.417289 0.390219
v 0.153768 -0.558588 0.441674
v 0.147183 -0.714093 0.345627
v 0.136430 -0.255753 0.393799
v 0.098759 -0.274603 0.413120
v 0.566938 -0.445986 -0.171788
v 0.271471 0.348345 0.246521
v 0.263732 0.475421 0.228265
v 0.184112 0.399628 0.214847
v 0.409427 0.467701 0.198198
v 0.402856 0.347152 0.211679
v 0.453127 0.405951 0.167484
v 0.285516 0.378527 0.258733
v 0.280482 0.446347 0.252232
v 0.391207 0.439486 0.230006
v 0.386738 0.375464 0.223757
v 0.287921 -0.506461 0.292488
v 0.004233 -0.261448 0.442498
v 0.004332 -0.329079 0.476329
v 0.004332 -0.283160 0.434516
v -0.093591 0.465459 0.270063
v -0.061689 0.508128 0.309695
v -0.115092 0.551186 0.317701
v -0.394104 0.334230 0.172553
v -0.433007 0.377600 0.144128
v -0.540748 0.362101 0.033174
v -0.522401 0.153354 0.149425
v -0.485350 0.569616 0.188119
v -0.159485 0.583396 0.315736
v -0.242613 0.977222 0.149388
v -0.528671 0.919542 -0.067947
v -0.151195 0.163286 0.320115
v -0.123674 0.374221 0.239711
v -0.162951 0.366118 0.199911
v -0.230920 0.330273 0.229191
v -0.492060 0.561954 0.179248
v -0.531432 0.865570 -0.038668
v -0.542341 0.425130 0.037535
v -0.553986 0.404179 0.003182
v -0.539656 0.921221 -0.086687
v -0.662234 0.823865 -0.454594
v -0.687097 0.332677 -0.571590
v -0.043468 -0.048685 0.439840
v -0.053865 -0.015740 0.514979
v -0.101306 -0.026275 0.416077
v -0.530001 0.147893 0.134032
v -0.551376 0.365668 0.015943
v -0.669395 0.303052 -0.487388
v -0.164279 0.103085 0.338371
v -0.514451 0.105708 0.160560
v -0.426495 -0.173389 0.121722
v -0.186667 0.061792 0.333865
v -0.393493 -0.209939 0.148984
v -0.255146 -0.254766 0.316381
v -0.189677 -0.010358 0.327852
v -0.041465 0.052314 0.587100
v -0.142515 0.032583 0.376526
v -0.121390 -0.018588 0.391705
v -0.040474 -0.000617 0.560316
v -0.046046 -0.115985 0.409772
v -0.122392 -0.085366 0.382669
v -0.123241 -0.200526 0.416843
v -0.047993 -0.196679 0.458193
v -0.144095 -0.112872 0.375277
v -0.212519 -0.240511 0.352109
v -0.145733 -0.203391 0.405023
v -0.259564 -0.283842 0.311989
v -0.391442 -0.241112 0.152419
v -0.265512 -0.456933 0.268346
v -0.079948 -0.329988 0.415871
v -0.089040 -0.355210 0.399328
v -0.050087 -0.330416 0.423532
v -0.197271 -0.299543 0.351793
v -0.124725 -0.376005 0.372294
v -0.107626 -0.328569 0.403407
v -0.314653 -0.575655 0.132599
v -0.267472 -0.493993 0.252981
v -0.418958 -0.234617 0.113710
v -0.512763 -0.433902 -0.151812
v -0.200088 -0.130655 0.338929
v -0.156145 -0.048684 0.353808
v -0.169507 -0.016493 0.344287
v -0.191391 0.578517 0.307478
v -0.462851 0.567552 0.193037
v -0.388863 0.502595 0.187287
v -0.259144 0.510541 0.212547
v -0.491752 0.545800 0.177147
v -0.532697 0.427480 0.045213
v -0.441809 0.436727 0.144968
v -0.407425 0.483377 0.160589
v -0.261954 0.320642 0.218523
v -0.373772 0.320476 0.192228
v -0.504454 0.129380 0.162411
v -0.171118 0.127319 0.337608
v -0.217140 0.488791 0.217140
v -0.159089 0.434642 0.206604
v -0.117810 0.437535 0.239819
v -0.147864 0.560236 0.306729
v -0.433224 -0.169818 0.116461
v -0.521339 0.114251 0.153719
v -0.668040 0.277543 -0.500275
v -0.595628 -0.261141 -0.502444
v -0.529675 -0.421062 -0.181973
v -0.428471 -0.213221 0.093567
v -0.684633 0.269579 -0.571499
v -0.133547 -0.558764 0.399173
v -0.246765 -0.514793 0.273313
v -0.289506 -0.589073 0.163586
v -0.128531 -0.678111 0.325498
v -0.148845 -0.405469 0.348289
v -0.240513 -0.308855 0.322385
v -0.245880 -0.465034 0.283007
v -0.137122 -0.542066 0.396051
v -0.130363 -0.456130 0.364757
v -0.218712 -0.510363 0.305318
v -0.087994 0.063949 0.488196
v -0.125990 0.083758 0.387256
v -0.140307 0.053732 0.379251
v -0.040226 0.084313 0.580237
v -0.028422 0.452661 0.331701
v -0.075306 0.390143 0.273647
v -0.113463 0.122511 0.385418
v 0.102000 0.465459 0.270063
v 0.123501 0.551186 0.317701
v 0.070098 0.508128 0.309695
v 0.402513 0.334230 0.172553
v 0.530810 0.153354 0.149425
v 0.549157 0.362101 0.033174
v 0.441416 0.377600 0.144128
v 0.493759 0.569616 0.188119
v 0.537081 0.919542 -0.067947
v 0.251022 0.977222 0.149388
v 0.167894 0.583396 0.315736
v 0.159604 0.163286 0.320115
v 0.239329 0.330273 0.229191
v 0.171361 0.366118 0.199911
v 0.132083 0.374221 0.239710
v 0.500470 0.561954 0.179248
v 0.550750 0.425130 0.037535
v 0.539842 0.865570 -0.038669
v 0.562395 0.404179 0.003182
v 0.695506 0.332677 -0.571590
v 0.670644 0.823865 -0.454594
v 0.548066 0.921221 -0.086687
v 0.051877 -0.048685 0.439840
v 0.109715 -0.026275 0.416077
v 0.062275 -0.015740 0.514979
v 0.538410 0.147893 0.134032
v 0.677804 0.303052 -0.487388
v 0.559785 0.365668 0.015943
v 0.172688 0.103085 0.338371
v 0.195076 0.061792 0.333865
v 0.434904 -0.173389 0.121722
v 0.522860 0.105708 0.160560
v 0.401902 -0.209939 0.148984
v 0.198086 -0.010358 0.327852
v 0.263555 -0.254766 0.316381
v 0.049874 0.052314 0.587100
v 0.048884 -0.000617 0.560316
v 0.129799 -0.018588 0.391705
v 0.150924 0.032583 0.376526
v 0.054455 -0.115985 0.409772
v 0.056402 -0.196679 0.458193
v 0.131650 -0.200526 0.416843
v 0.130801 -0.085366 0.382669
v 0.152504 -0.112872 0.375277
v 0.154142 -0.203391 0.405023
v 0.220928 -0.240511 0.352109
v 0.267973 -0.283842 0.311989
v 0.273921 -0.456933 0.268346
v 0.399851 -0.241112 0.152419
v 0.088342 -0.329997 0.415883
v 0.058651 -0.330423 0.423519
v 0.097403 -0.355136 0.399395
v 0.205680 -0.299543 0.351793
v 0.116035 -0.328569 0.403407
v 0.133134 -0.376005 0.372294
v -0.081932 -0.380695 0.381222
v 0.090413 -0.380695 0.381222
v 0.004320 -0.325793 0.434817
v 0.323062 -0.575655 0.132599
v 0.521172 -0.433902 -0.151812
v 0.427367 -0.234617 0.113710
v 0.275881 -0.493993 0.252981
v 0.208497 -0.130656 0.338929
v 0.177916 -0.016493 0.344287
v 0.164554 -0.048684 0.353808
v 0.199800 0.578517 0.307478
v 0.267553 0.510541 0.212547
v 0.397272 0.502595 0.187287
v 0.471260 0.567552 0.193037
v 0.500161 0.545800 0.177147
v 0.415834 0.483377 0.160589
v 0.450218 0.436727 0.144968
v 0.541106 0.427480 0.045213
v 0.270363 0.320642 0.218523
v 0.179527 0.127319 0.337608
v 0.512863 0.129380 0.162411
v 0.382181 0.320476 0.192228
v 0.225549 0.488791 0.217139
v 0.156273 0.560236 0.306729
v 0.126219 0.437535 0.239819
v 0.167499 0.434642 0.206604
v 0.441633 -0.169818 0.116461
v 0.676449 0.277543 -0.500275
v 0.529748 0.114251 0.153719
v 0.604037 -0.261141 -0.502444
v 0.693042 0.269579 -0.571499
v 0.436880 -0.213221 0.093567
v 0.538084 -0.421062 -0.181973
v 0.141955 -0.558764 0.399173
v 0.136940 -0.678111 0.325498
v 0.297915 -0.589073 0.163586
v 0.255174 -0.514793 0.273313
v 0.157254 -0.405469 0.348289
v 0.254289 -0.465034 0.283007
v 0.248922 -0.308855 0.322385
v 0.145531 -0.542066 0.396051
v 0.227121 -0.510363 0.305318
v 0.138772 -0.456130 0.364757
v 0.096403 0.063949 0.488196
v 0.148716 0.053732 0.379251
v 0.134399 0.083758 0.387256
v 0.048635 0.084313 0.580237
v 0.121872 0.122511 0.385418
v 0.083715 0.390143 0.273647
v 0.036831 0.452661 0.331701
v 0.026665 -0.123122 0.420247
v -0.018256 -0.123122 0.420247
v -0.019015 -0.201601 0.463654
v 0.027424 -0.201601 0.463654
v 0.044014 -0.004905 0.553505
v -0.035604 -0.004905 0.553505
v -0.020451 -0.052921 0.443993
v 0.028860 -0.052921 0.443993
v 0.047952 0.063593 0.594067
v -0.039543 0.063593 0.594067
v -0.038580 0.005964 0.564980
v 0.046990 0.005964 0.564980
v -0.039309 0.065541 0.593944
v 0.047718 0.065541 0.593944
v 0.035216 0.457486 0.329524
v -0.026807 0.457486 0.329524
v -0.039072 0.517295 0.317099
v 0.047481 0.517295 0.317099
v 0.107278 0.565508 0.326063
v -0.098869 0.565508 0.326063
v -0.138029 0.584751 0.323886
v 0.146438 0.584751 0.323886
v 0.227513 0.977976 0.153364
v -0.219104 0.977976 0.153364
v 0.124171 -0.446938 0.366960
v -0.115762 -0.446938 0.366960
v -0.123933 -0.550838 0.404796
v 0.132342 -0.550838 0.404796
v 0.133137 -0.558704 0.403991
v -0.124728 -0.558704 0.403991
v -0.119577 -0.680346 0.328859
v 0.127986 -0.680346 0.328859
v -0.547908 0.933881 -0.046044
v -0.255718 0.992311 0.174733
v -0.569748 0.926338 -0.075880
v -0.693778 0.827591 -0.449086
v -0.719253 0.329765 -0.567592
v -0.340817 -0.586762 0.147778
v -0.542995 -0.442121 -0.142426
v -0.717035 0.274833 -0.567049
v -0.627035 -0.265339 -0.496603
v -0.560076 -0.426867 -0.172966
v -0.317373 -0.601591 0.175340
v -0.150273 -0.694010 0.343401
v 0.556318 0.933881 -0.046044
v 0.264127 0.992311 0.174733
v 0.727662 0.329765 -0.567592
v 0.702188 0.827591 -0.449086
v 0.578158 0.926338 -0.075880
v 0.349226 -0.586762 0.147778
v 0.551404 -0.442121 -0.142426
v 0.635444 -0.265339 -0.496603
v 0.568485 -0.426867 -0.172966
v 0.725444 0.274833 -0.567049
v 0.325782 -0.601591 0.175340
v 0.158682 -0.694010 0.343401
v -0.223139 0.993774 0.181393
v 0.231548 0.993774 0.181393
v -0.122802 -0.700006 0.354328
v 0.131211 -0.700006 0.354328
v -0.067048 0.491561 0.336920
v -0.104462 0.441519 0.290439
v -0.129678 0.542059 0.346309
v -0.411088 0.343603 0.198374
v -0.451900 0.389565 0.167300
v -0.544486 0.154735 0.173752
v -0.564188 0.373634 0.052509
v -0.171671 0.592451 0.344442
v -0.503471 0.578011 0.213463
v -0.158771 0.167929 0.353325
v -0.128918 0.392168 0.266069
v -0.243709 0.346031 0.254293
v -0.172483 0.384470 0.224610
v -0.521585 0.563767 0.192252
v -0.562736 0.881106 -0.035514
v -0.574138 0.420758 0.044133
v -0.583997 0.402257 0.015137
v -0.066586 -0.039835 0.534805
v -0.054543 -0.077997 0.447767
v -0.121539 -0.052039 0.420242
v -0.559814 0.143693 0.147689
v -0.582036 0.370104 0.024917
v -0.704736 0.305005 -0.498373
v -0.175015 0.099443 0.368998
v -0.533693 0.102214 0.186441
v -0.199501 0.052799 0.361973
v -0.443127 -0.186044 0.146777
v -0.422560 -0.206336 0.164205
v -0.277528 -0.253328 0.339691
v -0.208895 0.002889 0.351716
v -0.067630 0.048561 0.606277
v -0.173113 0.027963 0.386494
v -0.066544 -0.011129 0.576093
v -0.149349 -0.029519 0.403531
v -0.053396 -0.101774 0.437757
v -0.135791 -0.068985 0.407453
v -0.055200 -0.187947 0.488572
v -0.136984 -0.191721 0.444732
v -0.163282 -0.095373 0.396580
v -0.240561 -0.239530 0.370413
v -0.165132 -0.197607 0.430175
v -0.422009 -0.240104 0.165921
v -0.282359 -0.285352 0.334894
v -0.288658 -0.468643 0.288679
v -0.089624 -0.342264 0.444078
v -0.102622 -0.378323 0.420427
v -0.046933 -0.342875 0.455031
v -0.224324 -0.303324 0.372403
v -0.140911 -0.391239 0.395974
v -0.121251 -0.336697 0.431747
v -0.292038 -0.502277 0.272359
v -0.446652 -0.237499 0.130179
v -0.167075 -0.046274 0.384024
v -0.223985 -0.152435 0.364755
v -0.184380 -0.004583 0.371694
v -0.191577 0.562840 0.336957
v -0.478112 0.550743 0.216941
v -0.264882 0.488845 0.235648
v -0.397286 0.480938 0.209581
v -0.508844 0.536577 0.203194
v -0.553630 0.408964 0.063212
v -0.419415 0.468880 0.186842
v -0.455364 0.419693 0.168685
v -0.272757 0.331858 0.246744
v -0.387862 0.331519 0.219013
v -0.178574 0.131844 0.369207
v -0.523244 0.134148 0.188825
v -0.235288 0.472297 0.238196
v -0.173613 0.414512 0.227176
v -0.160715 0.549178 0.335061
v -0.128383 0.417876 0.263158
v -0.551740 0.106757 0.161640
v -0.461042 -0.185639 0.123290
v -0.702741 0.274835 -0.511523
v -0.457577 -0.215127 0.107975
v -0.155552 -0.568588 0.420835
v -0.272288 -0.523248 0.291057
v -0.257909 -0.308165 0.350311
v -0.158587 -0.412846 0.378378
v -0.263724 -0.477385 0.307645
v -0.148406 -0.441513 0.387499
v -0.155896 -0.536750 0.422180
v -0.246316 -0.501616 0.321628
v -0.106356 0.072718 0.522608
v -0.153519 0.097306 0.397318
v -0.171289 0.060036 0.387381
v -0.066809 0.089078 0.599197
v -0.054711 0.466933 0.344253
v -0.143292 0.128966 0.395798
v -0.104590 0.400377 0.282446
v 0.138087 0.542059 0.346309
v 0.112871 0.441519 0.290439
v 0.075457 0.491561 0.336920
v 0.552894 0.154735 0.173752
v 0.419497 0.343603 0.198374
v 0.460309 0.389565 0.167300
v 0.572597 0.373634 0.052509
v 0.511880 0.578011 0.213463
v 0.180080 0.592451 0.344442
v 0.167180 0.167929 0.353325
v 0.252118 0.346031 0.254292
v 0.137327 0.392168 0.266069
v 0.180893 0.384470 0.224610
v 0.529994 0.563767 0.192252
v 0.582547 0.420758 0.044133
v 0.571146 0.881106 -0.035514
v 0.592406 0.402257 0.015137
v 0.062952 -0.077997 0.447767
v 0.129948 -0.052039 0.420242
v 0.074996 -0.039835 0.534805
v 0.568223 0.143693 0.147689
v 0.713145 0.305005 -0.498373
v 0.590445 0.370104 0.024917
v 0.183424 0.099443 0.368998
v 0.207910 0.052799 0.361973
v 0.542102 0.102214 0.186441
v 0.451536 -0.186044 0.146777
v 0.217304 0.002889 0.351716
v 0.430969 -0.206336 0.164205
v 0.285937 -0.253328 0.339691
v 0.076039 0.048561 0.606277
v 0.074954 -0.011129 0.576093
v 0.181522 0.027963 0.386494
v 0.157758 -0.029519 0.403531
v 0.061805 -0.101774 0.437757
v 0.063609 -0.187947 0.488572
v 0.144200 -0.068985 0.407453
v 0.145393 -0.191721 0.444732
v 0.171691 -0.095373 0.396580
v 0.173541 -0.197607 0.430175
v 0.248970 -0.239530 0.370413
v 0.290768 -0.285352 0.334894
v 0.297067 -0.468643 0.288679
v 0.430418 -0.240104 0.165921
v 0.098034 -0.342266 0.444088
v 0.055527 -0.342876 0.455020
v 0.111007 -0.378256 0.420482
v 0.232733 -0.303324 0.372403
v 0.129660 -0.336697 0.431747
v 0.149320 -0.391239 0.395974
v -0.090720 -0.405441 0.401785
v 0.099189 -0.405441 0.401785
v 0.004322 -0.344943 0.460843
v 0.300447 -0.502277 0.272359
v 0.455061 -0.237499 0.130179
v 0.192789 -0.004583 0.371694
v 0.232394 -0.152435 0.364755
v 0.175483 -0.046274 0.384024
v 0.199986 0.562840 0.336957
v 0.273291 0.488845 0.235648
v 0.486521 0.550743 0.216941
v 0.405695 0.480938 0.209581
v 0.517253 0.536577 0.203194
v 0.427824 0.468880 0.186842
v 0.562039 0.408964 0.063212
v 0.463773 0.419693 0.168685
v 0.186983 0.131844 0.369207
v 0.281166 0.331858 0.246744
v 0.396271 0.331519 0.219013
v 0.531653 0.134148 0.188825
v 0.169124 0.549178 0.335061
v 0.243697 0.472297 0.238196
v 0.182023 0.414512 0.227176
v 0.136792 0.417876 0.263158
v 0.711150 0.274835 -0.511523
v 0.469451 -0.185639 0.123290
v 0.560149 0.106757 0.161640
v 0.465986 -0.215127 0.107975
v 0.163961 -0.568588 0.420835
v 0.280697 -0.523248 0.291057
v 0.166996 -0.412846 0.378378
v 0.272133 -0.477385 0.307645
v 0.266318 -0.308165 0.350311
v 0.164305 -0.536750 0.422180
v 0.254725 -0.501616 0.321628
v 0.156815 -0.441513 0.387499
v 0.114765 0.072718 0.522608
v 0.179698 0.060036 0.387381
v 0.161928 0.097306 0.397318
v 0.075218 0.089078 0.599197
v 0.151701 0.128966 0.395798
v 0.063120 0.466933 0.344253
v 0.112999 0.400377 0.282446
v -0.021571 -0.104708 0.446631
v 0.029980 -0.104708 0.446631
v 0.030796 -0.189039 0.493274
v -0.022387 -0.189039 0.493274
v -0.039398 -0.032870 0.569416
v 0.047808 -0.032870 0.569416
v 0.031806 -0.083570 0.453781
v -0.023397 -0.083570 0.453781
v -0.042937 0.052158 0.624140
v 0.051346 0.052158 0.624140
v 0.050283 -0.011440 0.592041
v -0.041874 -0.011440 0.592041
v -0.042742 0.080666 0.622341
v 0.051151 0.080666 0.622341
v -0.030063 0.478154 0.354182
v 0.038472 0.478154 0.354182
v -0.040268 0.508159 0.347949
v 0.048677 0.508159 0.347949
v -0.108218 0.562945 0.358135
v 0.116627 0.562945 0.358135
v -0.140799 0.594415 0.354575
v 0.149208 0.594415 0.354575
v -0.118867 -0.432847 0.395885
v 0.127276 -0.432847 0.395885
v 0.135942 -0.543030 0.436008
v -0.127533 -0.543030 0.436008
v -0.128194 -0.572675 0.432973
v 0.136603 -0.572675 0.432973
vn -0.2564 -0.7689 0.5857
vn -0.1062 -0.7460 0.6574
vn -0.1547 0.6219 0.7677
vn -0.2568 0.5806 0.7726
vn -0.6370 0.0342 0.7701
vn -0.2619 -0.3622 0.8946
vn -0.7495 0.2199 0.6244
vn -0.1830 0.6834 0.7068
vn 0.4868 0.3714 0.7907
vn 0.4205 -0.1653 0.8921
vn 0.2565 -0.7688 0.5858
vn 0.1062 -0.7460 0.6574
vn 0.1551 0.6219 0.7676
vn 0.2568 0.5806 0.7726
vn 0.6370 0.0342 0.7701
vn 0.2619 -0.3622 0.8946
vn 0.7495 0.2199 0.6244
vn 0.1830 0.6834 0.7068
vn -0.4868 0.3714 0.7907
vn -0.4205 -0.1653 0.8921
vn -0.0000 -0.7124 0.7018
vn -0.0000 0.1472 0.9891
vn -0.2991 -0.5197 0.8003
vn -0.5567 0.1078 0.8237
vn -0.7067 0.2208 0.6722
vn -0.6557 0.3140 0.6867
vn -0.5803 0.3036 0.7557
vn -0.3560 0.4144 0.8376
vn -0.4975 0.2526 0.8299
vn -0.6067 0.3115 0.7314
vn -0.4736 0.4758 0.7412
vn -0.4077 0.3909 0.8252
vn -0.5782 0.5447 0.6074
vn -0.0786 0.6537 0.7526
vn -0.1098 0.4586 0.8818
vn -0.9597 0.0708 0.2721
vn -0.9660 0.0683 0.2492
vn -0.9515 0.0310 0.3061
vn -0.9647 -0.0119 0.2632
vn -0.9742 0.0333 0.2232
vn -0.4505 -0.8389 0.3055
vn -0.9740 0.0265 0.2251
vn -0.4457 -0.2215 0.8674
vn -0.4576 -0.2570 0.8512
vn -0.5181 -0.2150 0.8278
vn -0.5192 0.0687 0.8519
vn -0.7376 0.1669 0.6543
vn -0.8679 -0.2332 0.4385
vn -0.8683 -0.2298 0.4396
vn -0.8668 -0.2332 0.4407
vn -0.8665 -0.2369 0.4394
vn -0.2044 0.3816 0.9014
vn -0.3556 0.2878 0.8892
vn -0.4354 0.3541 0.8277
vn -0.2960 0.4756 0.8284
vn -0.6812 0.2396 0.6917
vn -0.7810 -0.1273 0.6114
vn -0.2249 -0.4764 0.8500
vn -0.5479 -0.3117 0.7763
vn -0.8453 -0.2267 0.4839
vn -0.8450 -0.2354 0.4801
vn -0.8471 -0.2355 0.4764
vn -0.8485 -0.2294 0.4770
vn -0.4471 0.0779 0.8911
vn -0.2862 -0.5862 0.7580
vn -0.2772 -0.4491 0.8494
vn -0.1279 -0.5894 0.7977
vn -0.2019 -0.7020 0.6830
vn -0.4669 -0.5591 0.6852
vn -0.6615 -0.3119 0.6820
vn -0.3847 -0.1266 0.9143
vn -0.3164 -0.5513 0.7719
vn -0.2400 0.2443 0.9395
vn -0.4073 0.1496 0.9010
vn -0.4445 0.2465 0.8612
vn -0.3873 0.3355 0.8588
vn -0.4139 -0.5680 0.7114
vn -0.4864 -0.5455 0.6825
vn -0.4599 -0.5142 0.7239
vn -0.4163 -0.5328 0.7368
vn -0.9414 -0.3096 0.1339
vn -0.9808 -0.0240 0.1935
vn -0.9460 0.0219 0.3233
vn -0.9473 -0.0677 0.3132
vn -0.9648 -0.1282 0.2297
vn -0.7512 -0.3707 0.5461
vn -0.7519 -0.3715 0.5447
vn -0.7525 -0.3696 0.5451
vn -0.7521 -0.3690 0.5461
vn -0.4580 -0.2025 0.8656
vn -0.6532 0.3039 0.6935
vn -0.8679 0.3105 0.3877
vn -0.8750 0.2896 0.3878
vn -0.8733 0.2903 0.3912
vn -0.8755 0.2872 0.3886
vn -0.8765 0.2875 0.3862
vn 0.2991 -0.5197 0.8003
vn 0.5803 0.3036 0.7557
vn 0.6557 0.3140 0.6867
vn 0.7067 0.2208 0.6722
vn 0.5567 0.1078 0.8237
vn 0.4736 0.4758 0.7412
vn 0.6067 0.3115 0.7314
vn 0.4975 0.2526 0.8299
vn 0.3560 0.4144 0.8376
vn 0.1098 0.4586 0.8818
vn 0.0786 0.6537 0.7526
vn 0.5782 0.5447 0.6074
vn 0.4077 0.3909 0.8252
vn 0.9597 0.0708 0.2721
vn 0.9742 0.0333 0.2232
vn 0.9647 -0.0120 0.2632
vn 0.9515 0.0310 0.3061
vn 0.9660 0.0683 0.2492
vn 0.4505 -0.8389 0.3055
vn 0.9740 0.0265 0.2251
vn 0.5193 0.0687 0.8519
vn 0.5181 -0.2150 0.8278
vn 0.4576 -0.2570 0.8512
vn 0.4457 -0.2215 0.8674
vn 0.7376 0.1669 0.6543
vn 0.8665 -0.2369 0.4394
vn 0.8668 -0.2332 0.4407
vn 0.8683 -0.2298 0.4396
vn 0.8679 -0.2332 0.4385
vn 0.2960 0.4756 0.8284
vn 0.4354 0.3541 0.8277
vn 0.3556 0.2878 0.8892
vn 0.2044 0.3816 0.9014
vn 0.6812 0.2396 0.6917
vn 0.7810 -0.1273 0.6114
vn 0.2254 -0.4762 0.8499
vn 0.5479 -0.3117 0.7763
vn -0.0000 -0.6985 0.7156
vn 0.8485 -0.2294 0.4770
vn 0.8471 -0.2355 0.4764
vn 0.8450 -0.2354 0.4801
vn 0.8453 -0.2267 0.4839
vn 0.4471 0.0779 0.8911
vn 0.2019 -0.7020 0.6830
vn 0.1279 -0.5894 0.7977
vn 0.2772 -0.4491 0.8494
vn 0.2862 -0.5862 0.7580
vn 0.3164 -0.5513 0.7719
vn 0.3847 -0.1266 0.9143
vn 0.6615 -0.3119 0.6820
vn 0.4669 -0.5591 0.6851
vn 0.3873 0.3355 0.8588
vn 0.4445 0.2465 0.8612
vn 0.4073 0.1496 0.9010
vn 0.2400 0.2443 0.9395
vn 0.4163 -0.5328 0.7368
vn 0.4599 -0.5142 0.7239
vn 0.4864 -0.5455 0.6825
vn 0.4139 -0.5680 0.7114
vn 0.9414 -0.3096 0.1339
vn 0.9648 -0.1282 0.2297
vn 0.9473 -0.0677 0.3132
vn 0.9460 0.0219 0.3233
vn 0.9808 -0.0240 0.1935
vn 0.7521 -0.3690 0.5461
vn 0.7525 -0.3696 0.5451
vn 0.7519 -0.3715 0.5447
vn 0.7512 -0.3707 0.5461
vn 0.4580 -0.2025 0.8656
vn 0.6532 0.3039 0.6935
vn 0.8679 0.3105 0.3877
vn 0.8765 0.2875 0.3862
vn 0.8755 0.2872 0.3886
vn 0.8733 0.2903 0.3912
vn 0.8750 0.2896 0.3878
vn -0.0000 0.4840 0.8751
vn -0.0000 -0.9158 0.4016
vn -0.0000 -0.4506 0.8927
vn -0.0000 0.5593 0.8290
vn -0.0000 -0.1828 0.9832
vn -0.0000 0.3979 0.9175
vn -0.0000 0.3979 0.9174
vn -0.0000 0.3978 0.9175
vn -0.0000 0.3422 0.9396
vn -0.0000 -0.5255 0.8508
vn -0.1576 -0.8830 0.4421
vn -0.0647 -0.9592 0.2753
vn 0.1405 -0.2361 0.9615
vn -0.0836 0.8674 0.4905
vn 0.1598 0.1537 0.9751
vn -0.0356 0.8912 0.4521
vn -0.1243 0.8121 0.5702
vn 0.1576 -0.8830 0.4421
vn -0.1405 -0.2361 0.9615
vn 0.0647 -0.9592 0.2753
vn 0.0836 0.8674 0.4905
vn 0.0356 0.8912 0.4521
vn -0.1598 0.1537 0.9751
vn 0.1243 0.8121 0.5702
vn -0.0000 -0.8711 0.4910
vn -0.0000 0.7916 0.6111
vn -0.8511 0.5059 0.1404
vn 0.8938 -0.0247 0.4478
vn -0.5872 -0.6350 -0.5020
vn -0.6719 -0.7187 -0.1790
vn -0.6193 0.5149 -0.5928
vn -0.1947 -0.9276 0.3189
vn 0.6915 0.3968 0.6037
vn 0.0661 0.9598 -0.2728
vn 0.8001 0.4155 0.4327
vn -0.9065 -0.3116 -0.2850
vn -0.9734 0.0416 -0.2253
vn 0.8644 0.4852 0.1321
vn -0.3209 -0.8133 0.4853
vn 0.5568 -0.5476 0.6246
vn -0.3592 -0.5745 -0.7355
vn -0.2327 0.7396 -0.6315
vn 0.1789 0.1634 0.9702
vn -0.3571 -0.1504 -0.9219
vn -0.1025 0.9898 -0.0994
vn -0.9259 0.2818 -0.2517
vn -0.2428 0.3377 0.9094
vn 0.7311 -0.6201 -0.2846
vn -0.3098 -0.4765 -0.8228
vn -0.0233 0.9687 0.2471
vn -0.0997 -0.9843 0.1458
vn 0.0443 -0.9938 -0.1020
vn -0.8445 0.4810 -0.2354
vn 0.7817 0.1626 0.6021
vn -0.6673 0.7417 -0.0678
vn 0.1802 0.9771 0.1127
vn 0.2209 -0.7663 0.6033
vn -0.6971 0.2188 -0.6828
vn 0.1550 -0.9877 0.0182
vn -0.5848 0.3575 -0.7281
vn 0.2380 0.3652 0.9000
vn -0.3401 0.9383 0.0632
vn -0.4473 -0.8388 0.3104
vn -0.9739 -0.0994 -0.2039
vn 0.9044 0.1156 0.4108
vn 0.0924 0.9622 -0.2564
vn 0.4903 -0.4031 0.7727
vn -0.7987 -0.1748 -0.5758
vn -0.2099 0.9050 -0.3700
vn -0.1085 -0.9790 -0.1725
vn -0.7014 0.1968 -0.6851
vn 0.3420 0.5917 0.7300
vn 0.9023 -0.4109 0.1307
vn 0.0826 -0.9239 -0.3737
vn -0.6454 0.6860 0.3360
vn 0.4337 0.5933 0.6781
vn -0.1166 -0.9384 -0.3252
vn -0.8379 0.4766 -0.2661
vn -0.5239 0.7861 -0.3280
vn -0.3634 -0.5965 -0.7156
vn 0.3648 -0.8020 0.4730
vn -0.8055 0.4918 -0.3306
vn 0.8052 -0.2411 0.5417
vn -0.8565 -0.4368 -0.2749
vn 0.2277 -0.8597 -0.4573
vn -0.8375 0.4855 0.2507
vn 0.5076 0.5160 0.6899
vn -0.1723 0.7387 0.6517
vn 0.7594 -0.5833 0.2882
vn -0.5560 -0.5959 -0.5794
vn -0.4498 0.8283 0.3340
vn -0.8005 0.5986 -0.0315
vn -0.0795 -0.9360 0.3428
vn -0.8622 -0.4883 -0.1347
vn 0.6441 -0.5268 0.5546
vn 0.0723 0.9894 -0.1258
vn 0.5133 0.4032 0.7576
vn 0.6948 -0.7183 0.0354
vn -0.4257 0.7781 0.4618
vn -0.9111 0.0015 -0.4122
vn -0.2623 0.0451 -0.9639
vn -0.2613 0.7313 0.6300
vn 0.1626 -0.9481 -0.2732
vn -0.3022 0.8110 -0.5009
vn -0.2051 -0.8279 -0.5220
vn 0.0505 -0.9278 -0.3695
vn -0.7327 0.3349 -0.5924
vn 0.5014 -0.7945 0.3426
vn -0.6222 -0.6897 -0.3705
vn -0.5385 0.8420 0.0321
vn 0.8359 -0.1610 0.5247
vn -0.8174 -0.1393 -0.5590
vn 0.3231 0.9455 0.0398
vn 0.0948 -0.8015 0.5904
vn -0.4441 -0.8959 -0.0087
vn 0.1547 0.9740 -0.1656
vn 0.1759 -0.3310 0.9271
vn -0.5712 -0.4464 -0.6888
vn 0.2429 0.9651 0.0979
vn -0.0140 -0.6747 0.7379
vn 0.3718 0.3121 0.8743
vn -0.8938 -0.0247 0.4478
vn 0.8511 0.5059 0.1404
vn 0.5872 -0.6350 -0.5020
vn 0.6193 0.5149 -0.5928
vn 0.6719 -0.7187 -0.1790
vn -0.6915 0.3968 0.6037
vn 0.1947 -0.9276 0.3189
vn -0.8001 0.4155 0.4327
vn -0.0661 0.9598 -0.2728
vn 0.9065 -0.3116 -0.2850
vn -0.8644 0.4852 0.1321
vn 0.9734 0.0416 -0.2253
vn -0.5568 -0.5476 0.6246
vn 0.3209 -0.8133 0.4853
vn 0.2327 0.7396 -0.6315
vn 0.3592 -0.5745 -0.7355
vn -0.1789 0.1634 0.9702
vn 0.1025 0.9898 -0.0994
vn 0.3571 -0.1504 -0.9219
vn 0.2428 0.3377 0.9094
vn 0.9259 0.2818 -0.2517
vn -0.7311 -0.6201 -0.2846
vn 0.0233 0.9687 0.2471
vn 0.3098 -0.4765 -0.8228
vn 0.0997 -0.9843 0.1458
vn 0.8445 0.4810 -0.2354
vn -0.0443 -0.9938 -0.1020
vn 0.6673 0.7417 -0.0678
vn -0.7817 0.1626 0.6021
vn -0.2209 -0.7663 0.6033
vn -0.1802 0.9771 0.1127
vn 0.6971 0.2188 -0.6828
vn 0.5848 0.3575 -0.7281
vn -0.1550 -0.9877 0.0182
vn 0.3401 0.9383 0.0632
vn -0.2380 0.3652 0.9000
vn 0.9739 -0.0993 -0.2039
vn 0.4473 -0.8388 0.3104
vn -0.0924 0.9622 -0.2564
vn -0.9044 0.1156 0.4108
vn 0.7987 -0.1748 -0.5758
vn -0.4903 -0.4031 0.7727
vn 0.2099 0.9050 -0.3700
vn 0.7014 0.1968 -0.6851
vn 0.1085 -0.9790 -0.1725
vn -0.3420 0.5917 0.7300
vn -0.0828 -0.9239 -0.3735
vn -0.9021 -0.4112 0.1311
vn 0.6460 0.6858 0.3352
vn 0.1166 -0.9384 -0.3252
vn -0.4337 0.5933 0.6781
vn 0.8379 0.4766 -0.2661
vn -0.0000 0.6391 0.7691
vn 0.6610 -0.6043 -0.4447
vn -0.6617 -0.6039 -0.4443
vn 0.5239 0.7861 -0.3280
vn -0.3648 -0.8020 0.4730
vn 0.3634 -0.5965 -0.7156
vn -0.8052 -0.2411 0.5417
vn 0.8055 0.4918 -0.3306
vn 0.8565 -0.4368 -0.2749
vn 0.8375 0.4855 0.2507
vn -0.2277 -0.8597 -0.4573
vn 0.1723 0.7387 0.6517
vn -0.5076 0.5160 0.6899
vn 0.5560 -0.5959 -0.5794
vn -0.7594 -0.5833 0.2882
vn 0.8005 0.5986 -0.0315
vn 0.4498 0.8283 0.3340
vn 0.8622 -0.4883 -0.1347
vn 0.0795 -0.9360 0.3428
vn -0.0723 0.9894 -0.1258
vn -0.6441 -0.5268 0.5546
vn -0.6948 -0.7183 0.0354
vn -0.5133 0.4032 0.7576
vn 0.9111 0.0015 -0.4122
vn 0.4257 0.7782 0.4618
vn 0.2613 0.7313 0.6300
vn 0.2623 0.0451 -0.9639
vn -0.1626 -0.9481 -0.2732
vn 0.2051 -0.8279 -0.5220
vn 0.3022 0.8110 -0.5009
vn 0.7327 0.3349 -0.5924
vn -0.0505 -0.9278 -0.3695
vn -0.5014 -0.7945 0.3426
vn 0.5385 0.8420 0.0321
vn 0.6222 -0.6897 -0.3705
vn -0.8359 -0.1610 0.5247
vn -0.3231 0.9455 0.0398
vn 0.8174 -0.1393 -0.5590
vn -0.0948 -0.8015 0.5904
vn -0.1547 0.9740 -0.1656
vn 0.4441 -0.8959 -0.0087
vn -0.1759 -0.3310 0.9271
vn -0.2429 0.9651 0.0979
vn 0.5712 -0.4464 -0.6888
vn -0.3718 0.3121 0.8743
vn 0.0140 -0.6747 0.7379
vn -0.0000 -0.8200 0.5723
vn -0.9946 0.0429 0.0950
vn 0.9946 0.0429 0.0950
vn -0.0000 0.9206 -0.3905
vn -0.0000 -0.4945 -0.8692
vn -0.9867 -0.0450 0.1562
vn 0.9867 -0.0450 0.1562
vn -0.0000 0.3042 0.9526
vn -0.0000 -0.9347 -0.3554
vn -0.9945 -0.0336 0.0994
vn 0.9945 -0.0336 0.0994
vn -0.0000 0.8411 0.5409
vn -0.0000 0.8826 -0.4701
vn 0.9942 0.0363 0.1008
vn -0.9942 0.0363 0.1008
vn -0.0000 -0.7664 0.6424
vn -0.0000 0.9588 0.2840
vn 0.6307 0.7371 0.2427
vn -0.6307 0.7371 0.2427
vn -0.0000 -0.9968 -0.0796
vn -0.0000 0.9538 -0.3004
vn 0.9773 0.2109 0.0218
vn -0.9773 0.2109 0.0218
vn -0.0000 -0.8990 0.4380
vn -0.9919 -0.0333 0.1227
vn 0.9919 -0.0333 0.1227
vn -0.0000 0.9701 -0.2427
vn -0.0000 -0.9008 -0.4342
vn -0.9939 -0.0241 0.1072
vn 0.9939 -0.0241 0.1072
s 0
usemtl Material.002
f 20//1 21//1 27//1 81//1
f 21//2 22//2 27//2
f 23//3 82//3 83//3 28//3
f 22//4 23//4 28//4
f 39//5 35//5 34//5
f 36//6 39//6 34//6 30//6
f 33//7 35//7 38//7
f 31//8 33//8 38//8 37//8
f 37//9 32//9 31//9
f 30//10 32//10 36//10
f 60//11 81//11 67//11 61//11
f 61//12 67//12 62//12
f 63//13 68//13 83//13 82//13
f 62//14 68//14 63//14
f 79//15 74//15 75//15
f 76//16 70//16 74//16 79//16
f 73//17 78//17 75//17
f 71//18 77//18 78//18 73//18
f 77//19 71//19 72//19
f 70//20 76//20 72//20
f 60//21 20//21 81//21
f 27//22 22//22 28//22 83//22 68//22 62//22 67//22 81//22
f 6//23 3//23 351//23 352//23
f 3//23 5//23 353//23 351//23
f 5//23 6//23 352//23 353//23
f 34//24 35//24 355//24 354//24
f 35//25 12//25 357//25 355//25
f 12//26 8//26 356//26 357//26
f 8//27 34//27 354//27 356//27
f 7//28 5//28 358//28 359//28
f 5//29 14//29 324//29 358//29
f 14//30 13//30 323//30 324//30
f 13//31 7//31 359//31 323//31
f 4//32 6//32 361//32 360//32
f 6//33 32//33 363//33 361//33
f 32//34 30//34 362//34 363//34
f 30//35 4//35 360//35 362//35
f 7//36 13//36 365//36 364//36
f 13//36 12//36 366//36 365//36
f 12//36 7//36 364//36 366//36
f 12//37 13//37 325//37 367//37
f 13//38 16//38 326//38 325//38
f 16//39 15//39 327//39 326//39
f 15//40 12//40 367//40 327//40
f 9//41 2//41 368//41 369//41
f 2//41 11//41 370//41 368//41
f 11//41 9//41 369//41 370//41
f 8//42 12//42 372//42 371//42
f 12//42 15//42 373//42 372//42
f 15//42 8//42 371//42 373//42
f 4//43 8//43 375//43 374//43
f 8//44 17//44 377//44 375//44
f 17//45 10//45 376//45 377//45
f 10//46 4//46 374//46 376//46
f 17//47 22//47 379//47 378//47
f 22//47 10//47 380//47 379//47
f 10//47 17//47 378//47 380//47
f 1//48 10//48 382//48 381//48
f 10//49 11//49 384//49 382//49
f 11//50 2//50 383//50 384//50
f 2//51 1//51 381//51 383//51
f 9//52 11//52 386//52 385//52
f 11//53 21//53 388//53 386//53
f 21//54 20//54 387//54 388//54
f 20//55 9//55 385//55 387//55
f 11//56 22//56 390//56 389//56
f 22//56 21//56 391//56 390//56
f 21//56 11//56 389//56 391//56
f 22//57 17//57 392//57 393//57
f 17//57 40//57 394//57 392//57
f 40//57 22//57 393//57 394//57
f 23//58 24//58 396//58 395//58
f 24//58 82//58 397//58 396//58
f 82//58 23//58 395//58 397//58
f 22//59 24//59 399//59 398//59
f 24//59 23//59 400//59 399//59
f 23//59 22//59 398//59 400//59
f 19//60 40//60 401//60 328//60
f 40//61 17//61 402//61 401//61
f 17//62 29//62 329//62 402//62
f 29//63 19//63 328//63 329//63
f 22//64 11//64 403//64 404//64
f 11//64 10//64 405//64 403//64
f 10//64 22//64 404//64 405//64
f 5//65 7//65 407//65 406//65
f 7//66 33//66 409//66 407//66
f 33//67 31//67 408//67 409//67
f 31//68 5//68 406//68 408//68
f 7//69 12//69 411//69 410//69
f 12//70 35//70 413//70 411//70
f 35//71 33//71 412//71 413//71
f 33//72 7//72 410//72 412//72
f 30//73 34//73 415//73 414//73
f 34//74 8//74 417//74 415//74
f 8//75 4//75 416//75 417//75
f 4//76 30//76 414//76 416//76
f 31//77 32//77 419//77 418//77
f 32//78 6//78 421//78 419//78
f 6//79 5//79 420//79 421//79
f 5//80 31//80 418//80 420//80
f 17//81 8//81 422//81 423//81
f 8//81 15//81 424//81 422//81
f 15//81 17//81 423//81 424//81
f 18//82 29//82 332//82 331//82
f 29//83 17//83 425//83 332//83
f 17//84 15//84 330//84 425//84
f 15//85 18//85 331//85 330//85
f 25//86 40//86 427//86 426//86
f 40//87 19//87 333//87 427//87
f 19//88 26//88 334//88 333//88
f 26//89 25//89 426//89 334//89
f 24//90 22//90 428//90 429//90
f 22//90 40//90 430//90 428//90
f 40//90 24//90 429//90 430//90
f 25//91 24//91 431//91 432//91
f 24//91 40//91 433//91 431//91
f 40//91 25//91 432//91 433//91
f 1//92 4//92 435//92 434//92
f 4//92 10//92 436//92 435//92
f 10//92 1//92 434//92 436//92
f 1//93 3//93 438//93 437//93
f 3//94 6//94 440//94 438//94
f 6//95 4//95 439//95 440//95
f 4//96 1//96 437//96 439//96
f 46//97 45//97 441//97 442//97
f 45//97 43//97 443//97 441//97
f 43//97 46//97 442//97 443//97
f 74//98 48//98 444//98 445//98
f 48//99 52//99 447//99 444//99
f 52//100 75//100 446//100 447//100
f 75//101 74//101 445//101 446//101
f 47//102 53//102 335//102 448//102
f 53//103 54//103 336//103 335//103
f 54//104 45//104 449//104 336//104
f 45//105 47//105 448//105 449//105
f 44//106 70//106 451//106 450//106
f 70//107 72//107 453//107 451//107
f 72//108 46//108 452//108 453//108
f 46//109 44//109 450//109 452//109
f 47//110 52//110 455//110 454//110
f 52//110 53//110 456//110 455//110
f 53//110 47//110 454//110 456//110
f 52//111 55//111 337//111 457//111
f 55//112 56//112 338//112 337//112
f 56//113 53//113 339//113 338//113
f 53//114 52//114 457//114 339//114
f 49//115 51//115 459//115 458//115
f 51//115 42//115 460//115 459//115
f 42//115 49//115 458//115 460//115
f 48//116 55//116 462//116 461//116
f 55//116 52//116 463//116 462//116
f 52//116 48//116 461//116 463//116
f 44//117 50//117 465//117 464//117
f 50//118 57//118 467//118 465//118
f 57//119 48//119 466//119 467//119
f 48//120 44//120 464//120 466//120
f 57//121 50//121 468//121 469//121
f 50//121 62//121 470//121 468//121
f 62//121 57//121 469//121 470//121
f 41//122 42//122 472//122 471//122
f 42//123 51//123 474//123 472//123
f 51//124 50//124 473//124 474//124
f 50//125 41//125 471//125 473//125
f 49//126 60//126 476//126 475//126
f 60//127 61//127 478//127 476//127
f 61//128 51//128 477//128 478//128
f 51//129 49//129 475//129 477//129
f 51//130 61//130 480//130 479//130
f 61//130 62//130 481//130 480//130
f 62//130 51//130 479//130 481//130
f 62//131 80//131 483//131 482//131
f 80//131 57//131 484//131 483//131
f 57//131 62//131 482//131 484//131
f 63//132 82//132 486//132 485//132
f 82//132 64//132 487//132 486//132
f 64//132 63//132 485//132 487//132
f 62//133 63//133 489//133 488//133
f 63//133 64//133 490//133 489//133
f 64//133 62//133 488//133 490//133
f 24//134 64//134 492//134 491//134
f 64//134 82//134 493//134 492//134
f 82//134 24//134 491//134 493//134
f 59//135 69//135 341//135 340//135
f 69//136 57//136 495//136 341//136
f 57//137 80//137 494//137 495//137
f 80//138 59//138 340//138 494//138
f 62//139 50//139 496//139 497//139
f 50//139 51//139 498//139 496//139
f 51//139 62//139 497//139 498//139
f 45//140 71//140 500//140 499//140
f 71//141 73//141 502//141 500//141
f 73//142 47//142 501//142 502//142
f 47//143 45//143 499//143 501//143
f 47//144 73//144 504//144 503//144
f 73//145 75//145 506//145 504//145
f 75//146 52//146 505//146 506//146
f 52//147 47//147 503//147 505//147
f 70//148 44//148 507//148 508//148
f 44//149 48//149 510//149 507//149
f 48//150 74//150 509//150 510//150
f 74//151 70//151 508//151 509//151
f 71//152 45//152 511//152 512//152
f 45//153 46//153 514//153 511//153
f 46//154 72//154 513//154 514//154
f 72//155 71//155 512//155 513//155
f 57//156 55//156 515//156 516//156
f 55//156 48//156 517//156 515//156
f 48//156 57//156 516//156 517//156
f 58//157 55//157 344//157 342//157
f 55//158 57//158 518//158 344//158
f 57//159 69//159 343//159 518//159
f 69//160 58//160 342//160 343//160
f 65//161 66//161 346//161 519//161
f 66//162 59//162 345//162 346//162
f 59//163 80//163 520//163 345//163
f 80//164 65//164 519//164 520//164
f 64//165 80//165 522//165 521//165
f 80//165 62//165 523//165 522//165
f 62//165 64//165 521//165 523//165
f 65//166 80//166 525//166 524//166
f 80//166 64//166 526//166 525//166
f 64//166 65//166 524//166 526//166
f 41//167 50//167 528//167 527//167
f 50//167 44//167 529//167 528//167
f 44//167 41//167 527//167 529//167
f 41//168 44//168 531//168 530//168
f 44//169 46//169 533//169 531//169
f 46//170 43//170 532//170 533//170
f 43//171 41//171 530//171 532//171
f 49//172 9//172 534//172 535//172
f 9//172 20//172 537//172 534//172
f 20//172 60//172 536//172 537//172
f 60//172 49//172 535//172 536//172
f 42//173 2//173 538//173 539//173
f 2//173 9//173 541//173 538//173
f 9//173 49//173 540//173 541//173
f 49//173 42//173 539//173 540//173
f 41//174 1//174 542//174 543//174
f 1//174 2//174 545//174 542//174
f 2//174 42//174 544//174 545//174
f 42//174 41//174 543//174 544//174
f 1//175 41//175 547//175 546//175
f 41//175 43//175 549//175 547//175
f 43//175 3//175 548//175 549//175
f 3//175 1//175 546//175 548//175
f 3//176 43//176 551//176 550//176
f 43//176 45//176 553//176 551//176
f 45//176 5//176 552//176 553//176
f 5//176 3//176 550//176 552//176
f 5//177 45//177 555//177 554//177
f 45//178 54//178 348//178 555//178
f 54//179 14//179 347//179 348//179
f 14//178 5//178 554//178 347//178
f 64//180 24//180 556//180 557//180
f 24//180 25//180 559//180 556//180
f 25//180 65//180 558//180 559//180
f 65//180 64//180 557//180 558//180
f 65//181 25//181 560//181 561//181
f 25//181 26//181 349//181 560//181
f 26//181 66//181 350//181 349//181
f 66//181 65//181 561//181 350//181
f 94//182 93//182 324//182 323//182
f 104//183 103//183 325//183 326//183
f 105//184 104//184 326//184 327//184
f 139//185 142//185 329//185 328//185
f 165//186 168//186 330//186 331//186
f 166//187 165//187 331//187 332//187
f 172//188 171//188 333//188 334//188
f 195//189 194//189 335//189 336//189
f 206//190 205//190 337//190 338//190
f 207//191 206//191 338//191 339//191
f 245//192 244//192 340//192 341//192
f 270//193 273//193 343//193 342//193
f 271//194 270//194 342//194 344//194
f 276//195 275//195 346//195 345//195
f 314//196 313//196 348//196 347//196
f 322//197 321//197 349//197 350//197
f 85//198 84//198 352//198 351//198
f 84//199 86//199 353//199 352//199
f 86//200 85//200 351//200 353//200
f 88//201 87//201 354//201 355//201
f 87//202 90//202 356//202 354//202
f 89//203 88//203 355//203 357//203
f 90//204 89//204 357//204 356//204
f 92//205 91//205 359//205 358//205
f 91//206 94//206 323//206 359//206
f 93//207 92//207 358//207 324//207
f 96//208 95//208 360//208 361//208
f 95//209 98//209 362//209 360//209
f 97//210 96//210 361//210 363//210
f 98//211 97//211 363//211 362//211
f 100//212 99//212 364//212 365//212
f 99//213 101//213 366//213 364//213
f 101//214 100//214 365//214 366//214
f 103//215 102//215 367//215 325//215
f 102//216 105//216 327//216 367//216
f 107//217 106//217 369//217 368//217
f 106//218 108//218 370//218 369//218
f 108//219 107//219 368//219 370//219
f 110//220 109//220 371//220 372//220
f 109//221 111//221 373//221 371//221
f 111//222 110//222 372//222 373//222
f 113//223 112//223 374//223 375//223
f 112//224 115//224 376//224 374//224
f 114//225 113//225 375//225 377//225
f 115//226 114//226 377//226 376//226
f 117//227 116//227 378//227 379//227
f 116//228 118//228 380//228 378//228
f 118//229 117//229 379//229 380//229
f 120//230 119//230 381//230 382//230
f 119//231 122//231 383//231 381//231
f 121//232 120//232 382//232 384//232
f 122//233 121//233 384//233 383//233
f 124//234 123//234 385//234 386//234
f 123//235 126//235 387//235 385//235
f 125//236 124//236 386//236 388//236
f 126//237 125//237 388//237 387//237
f 128//238 127//238 389//238 390//238
f 127//239 129//239 391//239 389//239
f 129//240 128//240 390//240 391//240
f 131//241 130//241 393//241 392//241
f 130//242 132//242 394//242 393//242
f 132//243 131//243 392//243 394//243
f 134//244 133//244 395//244 396//244
f 133//245 135//245 397//245 395//245
f 135//246 134//246 396//246 397//246
f 137//247 136//247 398//247 399//247
f 136//248 138//248 400//248 398//248
f 138//249 137//249 399//249 400//249
f 140//250 139//250 328//250 401//250
f 141//251 140//251 401//251 402//251
f 142//252 141//252 402//252 329//252
f 144//253 143//253 404//253 403//253
f 143//254 145//254 405//254 404//254
f 145//255 144//255 403//255 405//255
f 147//256 146//256 406//256 407//256
f 146//257 149//257 408//257 406//257
f 148//258 147//258 407//258 409//258
f 149//259 148//259 409//259 408//259
f 151//260 150//260 410//260 411//260
f 150//261 153//261 412//261 410//261
f 152//262 151//262 411//262 413//262
f 153//263 152//263 413//263 412//263
f 155//264 154//264 414//264 415//264
f 154//265 157//265 416//265 414//265
f 156//266 155//266 415//266 417//266
f 157//267 156//267 417//267 416//267
f 159//268 158//268 418//268 419//268
f 158//269 161//269 420//269 418//269
f 160//270 159//270 419//270 421//270
f 161//271 160//271 421//271 420//271
f 163//272 162//272 423//272 422//272
f 162//273 164//273 424//273 423//273
f 164//274 163//274 422//274 424//274
f 167//275 166//275 332//275 425//275
f 168//276 167//276 425//276 330//276
f 170//277 169//277 426//277 427//277
f 169//278 172//278 334//278 426//278
f 171//279 170//279 427//279 333//279
f 174//280 173//280 429//280 428//280
f 173//281 175//281 430//281 429//281
f 175//282 174//282 428//282 430//282
f 177//283 176//283 432//283 431//283
f 176//284 178//284 433//284 432//284
f 178//285 177//285 431//285 433//285
f 180//286 179//286 434//286 435//286
f 179//287 181//287 436//287 434//287
f 181//288 180//288 435//288 436//288
f 183//289 182//289 437//289 438//289
f 182//290 185//290 439//290 437//290
f 184//291 183//291 438//291 440//291
f 185//292 184//292 440//292 439//292
f 187//293 186//293 442//293 441//293
f 186//294 188//294 443//294 442//294
f 188//295 187//295 441//295 443//295
f 190//296 189//296 445//296 444//296
f 189//297 192//297 446//297 445//297
f 191//298 190//298 444//298 447//298
f 192//299 191//299 447//299 446//299
f 194//300 193//300 448//300 335//300
f 193//301 196//301 449//301 448//301
f 196//302 195//302 336//302 449//302
f 198//303 197//303 450//303 451//303
f 197//304 200//304 452//304 450//304
f 199//305 198//305 451//305 453//305
f 200//306 199//306 453//306 452//306
f 202//307 201//307 454//307 455//307
f 201//308 203//308 456//308 454//308
f 203//309 202//309 455//309 456//309
f 205//310 204//310 457//310 337//310
f 204//311 207//311 339//311 457//311
f 209//312 208//312 458//312 459//312
f 208//313 210//313 460//313 458//313
f 210//314 209//314 459//314 460//314
f 212//315 211//315 461//315 462//315
f 211//316 213//316 463//316 461//316
f 213//317 212//317 462//317 463//317
f 215//318 214//318 464//318 465//318
f 214//319 217//319 466//319 464//319
f 216//320 215//320 465//320 467//320
f 217//321 216//321 467//321 466//321
f 219//322 218//322 469//322 468//322
f 218//323 220//323 470//323 469//323
f 220//324 219//324 468//324 470//324
f 222//325 221//325 471//325 472//325
f 221//326 224//326 473//326 471//326
f 223//327 222//327 472//327 474//327
f 224//328 223//328 474//328 473//328
f 226//329 225//329 475//329 476//329
f 225//330 228//330 477//330 475//330
f 227//331 226//331 476//331 478//331
f 228//332 227//332 478//332 477//332
f 230//333 229//333 479//333 480//333
f 229//334 231//334 481//334 479//334
f 231//335 230//335 480//335 481//335
f 233//336 232//336 482//336 483//336
f 232//337 234//337 484//337 482//337
f 234//338 233//338 483//338 484//338
f 236//339 235//339 485//339 486//339
f 235//340 237//340 487//340 485//340
f 237//341 236//341 486//341 487//341
f 239//342 238//342 488//342 489//342
f 238//343 240//343 490//343 488//343
f 240//344 239//344 489//344 490//344
f 242//345 241//345 491//345 492//345
f 241//346 243//346 493//346 491//346
f 243//347 242//347 492//347 493//347
f 244//348 247//348 494//348 340//348
f 246//349 245//349 341//349 495//349
f 247//350 246//350 495//350 494//350
f 249//351 248//351 497//351 496//351
f 248//352 250//352 498//352 497//352
f 250//353 249//353 496//353 498//353
f 252//354 251//354 499//354 500//354
f 251//355 254//355 501//355 499//355
f 253//356 252//356 500//356 502//356
f 254//357 253//357 502//357 501//357
f 256//358 255//358 503//358 504//358
f 255//359 258//359 505//359 503//359
f 257//360 256//360 504//360 506//360
f 258//361 257//361 506//361 505//361
f 260//362 259//362 508//362 507//362
f 259//363 262//363 509//363 508//363
f 261//364 260//364 507//364 510//364
f 262//365 261//365 510//365 509//365
f 264//366 263//366 512//366 511//366
f 263//367 266//367 513//367 512//367
f 265//368 264//368 511//368 514//368
f 266//369 265//369 514//369 513//369
f 268//370 267//370 516//370 515//370
f 267//371 269//371 517//371 516//371
f 269//372 268//372 515//372 517//372
f 272//373 271//373 344//373 518//373
f 273//374 272//374 518//374 343//374
f 275//375 274//375 519//375 346//375
f 274//376 277//376 520//376 519//376
f 277//377 276//377 345//377 520//377
f 279//378 278//378 521//378 522//378
f 278//379 280//379 523//379 521//379
f 280//380 279//380 522//380 523//380
f 282//381 281//381 524//381 525//381
f 281//382 283//382 526//382 524//382
f 283//383 282//383 525//383 526//383
f 285//384 284//384 527//384 528//384
f 284//385 286//385 529//385 527//385
f 286//386 285//386 528//386 529//386
f 288//387 287//387 530//387 531//387
f 287//388 290//388 532//388 530//388
f 289//389 288//389 531//389 533//389
f 290//390 289//390 533//390 532//390
f 292//391 291//391 535//391 534//391
f 291//392 294//392 536//392 535//392
f 293//393 292//393 534//393 537//393
f 294//394 293//394 537//394 536//394
f 296//395 295//395 539//395 538//395
f 295//396 298//396 540//396 539//396
f 297//397 296//397 538//397 541//397
f 298//398 297//398 541//398 540//398
f 300//399 299//399 543//399 542//399
f 299//400 302//400 544//400 543//400
f 301//401 300//401 542//401 545//401
f 302//402 301//402 545//402 544//402
f 304//403 303//403 546//403 547//403
f 303//404 306//404 548//404 546//404
f 305//405 304//405 547//405 549//405
f 306//406 305//406 549//406 548//406
f 308//407 307//407 550//407 551//407
f 307//408 310//408 552//408 550//408
f 309//409 308//409 551//409 553//409
f 310//410 309//410 553//410 552//410
f 312//411 311//411 554//411 555//411
f 311//412 314//412 347//412 554//412
f 313//413 312//413 555//413 348//413
f 316//414 315//414 557//414 556//414
f 315//415 318//415 558//415 557//415
f 317//416 316//416 556//416 559//416
f 318//417 317//417 559//417 558//417
f 320//418 319//418 561//418 560//418
f 319//419 322//419 350//419 561//419
f 321//420 320//420 560//420 349//420
